<?xml version="1.0" encoding="UTF-8" standalone="no"?>
<svg width="24px" height="28px" viewBox="0 0 24 28" version="1.1" xmlns="http://www.w3.org/2000/svg" xmlns:xlink="http://www.w3.org/1999/xlink">
    <!-- Generator: Sketch 41.2 (35397) - http://www.bohemiancoding.com/sketch -->
    <title>ico-close</title>
    <desc>Created with Sketch.</desc>
    <defs></defs>
    <g id="Page-1" stroke="none" stroke-width="1" fill="none" fill-rule="evenodd">
        <g id="ico-close" fill="#3C3C3B">
            <path d="M15.1400512,14 L20.7659761,19.625925 C21.1237294,19.9836782 21.0644445,20.6358112 20.6351407,21.0651151 L19.0651151,22.6351407 C18.6358112,23.0644445 17.9836782,23.1237294 17.625925,22.7659761 L12,17.1400512 L6.37407502,22.7659761 C6.01632179,23.1237294 5.36418877,23.0644445 4.9348849,22.6351407 L3.36485933,21.0651151 C2.93555546,20.6358112 2.87627064,19.9836782 3.23402386,19.625925 L8.85994885,14 L3.23402386,8.37407502 C2.87627064,8.01632179 2.93555546,7.36418877 3.36485933,6.9348849 L4.9348849,5.36485933 C5.36418877,4.93555546 6.01632179,4.87627064 6.37407502,5.23402386 L12,10.8599488 L17.625925,5.23402386 C17.9836782,4.87627064 18.6358112,4.93555546 19.0651151,5.36485933 L20.6351407,6.9348849 C21.0644445,7.36418877 21.1237294,8.01632179 20.7659761,8.37407502 L15.1400512,14 Z" id="Combined-Shape"></path>
        </g>
    </g>
</svg>